<svg viewBox="0 0 800 340" xmlns="http://www.w3.org/2000/svg" style="width:100%;max-width:800px;margin:24px auto;display:block;font-family:'Google Sans',system-ui,sans-serif">
  <defs>
    <filter id="s1"><feDropShadow dx="0" dy="1" stdDeviation="2" flood-opacity="0.1"/></filter>
    <marker id="ah" viewBox="0 0 10 7" refX="10" refY="3.5" markerWidth="8" markerHeight="6" orient="auto"><polygon points="0 0, 10 3.5, 0 7" fill="#5F6368"/></marker>
  </defs>
  <rect width="800" height="340" rx="16" fill="#f8f9fa" stroke="#e8eaed" stroke-width="1"/>
  <rect x="20" y="20" width="240" height="300" rx="12" fill="none" stroke="#c4c7c5" stroke-width="1" stroke-dasharray="6 4"/>
  <text x="140" y="44" text-anchor="middle" fill="#5F6368" font-size="11" font-weight="500">CHROME EXTENSION</text>
  <rect x="40" y="60" width="200" height="44" rx="8" fill="#fff" stroke="#e8eaed" filter="url(#s1)"/>
  <circle cx="62" cy="82" r="12" fill="#e8f0fe"/>
  <text x="82" y="86" fill="#1f1f1f" font-size="13" font-weight="500">Voice Input (16kHz PCM)</text>
  <rect x="40" y="116" width="200" height="44" rx="8" fill="#fff" stroke="#e8eaed" filter="url(#s1)"/>
  <circle cx="62" cy="138" r="12" fill="#e6f4ea"/>
  <text x="82" y="142" fill="#1f1f1f" font-size="13" font-weight="500">Vision (1fps JPEG)</text>
  <rect x="40" y="172" width="200" height="44" rx="8" fill="#fff" stroke="#e8eaed" filter="url(#s1)"/>
  <circle cx="62" cy="194" r="12" fill="#fef7e0"/>
  <text x="82" y="198" fill="#1f1f1f" font-size="13" font-weight="500">20 Browser Tools</text>
  <rect x="40" y="228" width="200" height="44" rx="8" fill="#fff" stroke="#e8eaed" filter="url(#s1)"/>
  <circle cx="62" cy="250" r="12" fill="#fce8e6"/>
  <text x="82" y="254" fill="#1f1f1f" font-size="13" font-weight="500">Privacy Shield</text>
  <rect x="310" y="100" width="180" height="140" rx="12" fill="#fff" stroke="#4285F4" stroke-width="1.5" filter="url(#s1)"/>
  <rect x="310" y="100" width="180" height="32" rx="12" fill="#4285F4"/>
  <text x="400" y="120" text-anchor="middle" fill="#fff" font-size="12" font-weight="500">Cloud Run Proxy</text>
  <text x="400" y="152" text-anchor="middle" fill="#5F6368" font-size="11">WebSocket Relay</text>
  <text x="400" y="170" text-anchor="middle" fill="#5F6368" font-size="11">API Key Rotation</text>
  <text x="400" y="188" text-anchor="middle" fill="#5F6368" font-size="11">Session Resumption</text>
  <text x="400" y="206" text-anchor="middle" fill="#5F6368" font-size="11">Context Compression</text>
  <rect x="540" y="100" width="240" height="140" rx="12" fill="#fff" stroke="#34A853" stroke-width="1.5" filter="url(#s1)"/>
  <rect x="540" y="100" width="240" height="32" rx="12" fill="#34A853"/>
  <text x="660" y="120" text-anchor="middle" fill="#fff" font-size="12" font-weight="500">Gemini Live API</text>
  <text x="660" y="152" text-anchor="middle" fill="#5F6368" font-size="11">Native Audio (2.5 Flash)</text>
  <text x="660" y="170" text-anchor="middle" fill="#5F6368" font-size="11">Affective Dialog</text>
  <text x="660" y="188" text-anchor="middle" fill="#5F6368" font-size="11">Function Calling</text>
  <text x="660" y="206" text-anchor="middle" fill="#5F6368" font-size="11">Proactive Audio</text>
  <line x1="240" y1="140" x2="308" y2="160" stroke="#5F6368" stroke-width="1.5" marker-end="url(#ah)"/>
  <line x1="240" y1="194" x2="308" y2="180" stroke="#5F6368" stroke-width="1.5" marker-end="url(#ah)"/>
  <line x1="490" y1="165" x2="538" y2="165" stroke="#5F6368" stroke-width="1.5" marker-end="url(#ah)"/>
  <line x1="538" y1="175" x2="490" y2="175" stroke="#5F6368" stroke-width="1.5" marker-end="url(#ah)"/>
  <text x="514" y="158" text-anchor="middle" fill="#5F6368" font-size="9">WS</text>
  <rect x="310" y="270" width="180" height="50" rx="8" fill="#fff" stroke="#FBBC05" stroke-width="1.5" filter="url(#s1)"/>
  <text x="400" y="292" text-anchor="middle" fill="#1f1f1f" font-size="12" font-weight="500">Local Memory</text>
  <text x="400" y="308" text-anchor="middle" fill="#5F6368" font-size="10">IndexedDB + Embeddings</text>
  <line x1="200" y1="272" x2="308" y2="290" stroke="#FBBC05" stroke-width="1" stroke-dasharray="4 3"/>
</svg>