<svg viewBox="0 0 800 240" xmlns="http://www.w3.org/2000/svg" style="width:100%;max-width:800px;margin:24px auto;display:block;font-family:'Google Sans',sans-serif">
  <defs>
    <filter id="s3"><feDropShadow dx="0" dy="1" stdDeviation="2" flood-opacity="0.1"/></filter>
    <marker id="ah3" viewBox="0 0 10 7" refX="10" refY="3.5" markerWidth="8" markerHeight="6" orient="auto"><polygon points="0 0, 10 3.5, 0 7" fill="#4285F4"/></marker>
    <marker id="ah3g" viewBox="0 0 10 7" refX="10" refY="3.5" markerWidth="8" markerHeight="6" orient="auto"><polygon points="0 0, 10 3.5, 0 7" fill="#34A853"/></marker>
    <marker id="ah3y" viewBox="0 0 10 7" refX="10" refY="3.5" markerWidth="8" markerHeight="6" orient="auto"><polygon points="0 0, 10 3.5, 0 7" fill="#FBBC05"/></marker>
    <marker id="ah3gr" viewBox="0 0 10 7" refX="10" refY="3.5" markerWidth="8" markerHeight="6" orient="auto"><polygon points="0 0, 10 3.5, 0 7" fill="#5F6368"/></marker>
  </defs>
  <rect width="800" height="240" rx="16" fill="#f8f9fa" stroke="#e8eaed"/>
  <!-- User -->
  <rect x="30" y="70" width="120" height="80" rx="12" fill="#4285F4" filter="url(#s3)"/>
  <text x="90" y="108" text-anchor="middle" fill="#fff" font-size="13" font-weight="500">User</text>
  <text x="90" y="126" text-anchor="middle" fill="#d2e3fc" font-size="10">Voice + Screen</text>
  <!-- Gemini -->
  <rect x="340" y="30" width="140" height="70" rx="12" fill="#34A853" filter="url(#s3)"/>
  <text x="410" y="62" text-anchor="middle" fill="#fff" font-size="13" font-weight="500">Gemini Live</text>
  <text x="410" y="80" text-anchor="middle" fill="#e6f4ea" font-size="10">Think + Respond</text>
  <!-- Tools -->
  <rect x="340" y="120" width="140" height="70" rx="12" fill="#FBBC05" filter="url(#s3)"/>
  <text x="410" y="152" text-anchor="middle" fill="#1f1f1f" font-size="13" font-weight="500">Browser Tools</text>
  <text x="410" y="170" text-anchor="middle" fill="#5F6368" font-size="10">Click · Type · Scroll</text>
  <!-- Page -->
  <rect x="650" y="70" width="120" height="80" rx="12" fill="#fff" stroke="#e8eaed" stroke-width="1.5" filter="url(#s3)"/>
  <text x="710" y="108" text-anchor="middle" fill="#1f1f1f" font-size="13" font-weight="500">Web Page</text>
  <text x="710" y="126" text-anchor="middle" fill="#5F6368" font-size="10">DOM + Canvas</text>
  <!-- Arrows: User → Gemini (audio) -->
  <path d="M150,90 Q245,30 338,60" fill="none" stroke="#4285F4" stroke-width="1.5" marker-end="url(#ah3)"/>
  <text x="230" y="46" fill="#4285F4" font-size="10" font-weight="500">16kHz PCM Audio</text>
  <!-- Gemini → User (voice response) -->
  <path d="M338,80 Q245,155 152,120" fill="none" stroke="#34A853" stroke-width="1.5" marker-end="url(#ah3g)"/>
  <text x="220" y="148" fill="#34A853" font-size="10" font-weight="500">24kHz Voice Response</text>
  <!-- Gemini → Tools (function call) -->
  <line x1="410" y1="100" x2="410" y2="118" stroke="#34A853" stroke-width="1.5" marker-end="url(#ah3g)"/>
  <text x="440" y="112" fill="#34A853" font-size="9">fn call</text>
  <!-- Tools → Page -->
  <line x1="480" y1="155" x2="648" y2="110" stroke="#FBBC05" stroke-width="1.5" marker-end="url(#ah3y)"/>
  <text x="570" y="107" fill="#e37400" font-size="10" font-weight="500">Execute Action</text>
  <!-- Vision: Page → Gemini -->
  <path d="M710,70 Q710,10 480,45" fill="none" stroke="#5F6368" stroke-width="1" stroke-dasharray="4 3" marker-end="url(#ah3gr)"/>
  <text x="610" y="22" fill="#5F6368" font-size="9">Screen frames (1fps)</text>
</svg>